<svg width="24" height="24" viewBox="0 0 24 24" fill="none" xmlns="http://www.w3.org/2000/svg">
<path fill-rule="evenodd" clip-rule="evenodd" d="M21.3333 0C22.8061 0 24 1.19391 24 2.66667V21.3333C24 22.8061 22.8061 24 21.3333 24H2.66667C1.19391 24 0 22.8061 0 21.3333V2.66667C0 1.19391 1.19391 0 2.66667 0H21.3333ZM14.4783 6.48905C13.0496 6.48905 11.8912 7.72515 11.8912 9.24999C11.8912 9.46607 11.914 9.67668 11.9583 9.8791C9.80787 9.76383 7.90118 8.66486 6.62502 6.99442C6.4023 7.40199 6.27482 7.87621 6.27482 8.38267C6.27482 9.34041 6.73152 10.1856 7.42579 10.6806C7.00186 10.6661 6.60275 10.5418 6.25382 10.335L6.25357 10.37C6.25357 11.7074 7.14547 12.8231 8.32922 13.0771C8.11213 13.1399 7.88352 13.1738 7.64749 13.1738C7.48058 13.1738 7.31853 13.1566 7.16058 13.1241C7.49005 14.2209 8.44544 15.0194 9.57747 15.0415C8.69197 15.7821 7.57658 16.2235 6.36416 16.2235C6.15552 16.2235 5.94944 16.2104 5.74694 16.1847C6.89229 16.9684 8.25216 17.4252 9.71315 17.4252C14.4724 17.4252 17.0747 13.2183 17.0747 9.56987C17.0747 9.45022 17.0724 9.33085 17.0675 9.21229C17.5729 8.82384 18.0116 8.33733 18.3583 7.78361C17.8947 8.00351 17.3957 8.15184 16.8722 8.21822C17.4067 7.87676 17.8166 7.33588 18.0099 6.69065C17.5099 7.00726 16.9564 7.237 16.3668 7.36101C15.895 6.82451 15.2225 6.48905 14.4783 6.48905Z" fill="#601DC0"/>
</svg>
