<svg width="24" height="24" viewBox="0 0 24 24" fill="none" xmlns="http://www.w3.org/2000/svg">
<path fill-rule="evenodd" clip-rule="evenodd" d="M21.3333 0C22.8061 0 24 1.19391 24 2.66667V21.3333C24 22.8061 22.8061 24 21.3333 24H2.66667C1.19391 24 0 22.8061 0 21.3333V2.66667C0 1.19391 1.19391 0 2.66667 0H21.3333ZM12 5.33333C8.31867 5.33333 5.33333 8.31867 5.33333 12C5.33333 15.6813 8.31867 18.6667 12 18.6667C15.6813 18.6667 18.6667 15.6813 18.6667 12C18.6667 8.31867 15.6813 5.33333 12 5.33333ZM12 8C14.2091 8 16 9.79086 16 12C16 14.2091 14.2091 16 12 16C9.79086 16 8 14.2091 8 12C8 9.79086 9.79086 8 12 8ZM20 2.66667C19.264 2.66667 18.6667 3.264 18.6667 4C18.6667 4.736 19.264 5.33333 20 5.33333C20.736 5.33333 21.3333 4.736 21.3333 4C21.3333 3.264 20.736 2.66667 20 2.66667Z" fill="#601DC0"/>
</svg>
