<svg width="24" height="24" viewBox="0 0 24 24" fill="none" xmlns="http://www.w3.org/2000/svg">
<path d="M21.1429 0H2.85714C1.28 0 0 1.28 0 2.85714V21.1429C0 22.72 1.28 24 2.85714 24H21.1429C22.72 24 24 22.72 24 21.1429V2.85714C24 1.28 22.72 0 21.1429 0ZM19.2686 16.5714L17.1371 16.5657C17.1371 16.5657 17.0914 16.5714 17.0171 16.5714C16.8457 16.5714 16.4914 16.5257 16.0743 16.24C15.3257 15.72 14.6114 14.4286 14.0457 14.4286C14.0057 14.4286 13.9714 14.4343 13.9371 14.4457C13.4457 14.6 13.2971 15.0914 13.2971 15.6914C13.2971 15.9029 13.1486 16 12.7486 16H11.6457C10.4114 16 9.21714 15.9714 7.87429 14.5029C5.89714 12.3371 4.04571 8.48571 4.04571 8.48571C4.04571 8.48571 3.94286 8.26286 4.05143 8.13143C4.15429 8.01143 4.39429 8 4.48571 8C4.50857 8 4.52 8 4.52 8H6.80571C6.80571 8 7.01714 8.04 7.17143 8.15429C7.30286 8.25143 7.37143 8.42857 7.37143 8.42857C7.37143 8.42857 7.76 9.18286 8.24571 10.0343C9.06286 11.44 9.50286 11.9086 9.81714 11.9086C9.86857 11.9086 9.92 11.8971 9.97143 11.8686C10.44 11.6114 10.3029 9.53143 10.3029 9.53143C10.3029 9.53143 10.3086 8.77714 10.0629 8.44571C9.87429 8.18286 9.51429 8.10857 9.35429 8.08571C9.22857 8.06857 9.43429 7.77143 9.70857 7.63429C10.0629 7.46286 10.6514 7.42857 11.36 7.42857H11.7029C12.3714 7.44 12.3886 7.50857 12.6514 7.57143C13.44 7.76 13.1714 8.49714 13.1714 10.2629C13.1714 10.8286 13.0686 11.6229 13.4743 11.8914C13.5029 11.9086 13.5429 11.92 13.5943 11.92C13.8571 11.92 14.4229 11.5829 15.3257 10.0571C15.8286 9.18857 16.2171 8.32571 16.2171 8.32571C16.2171 8.32571 16.3029 8.17143 16.4343 8.09143C16.56 8.01714 16.56 8.01714 16.7257 8.01714H16.7429C16.9257 8.01714 18.7429 8 19.1429 8H19.1886C19.5714 8 19.92 8.00571 19.9829 8.24C20.0743 8.59429 19.7029 9.22857 18.7257 10.5429C17.1143 12.6971 16.9314 12.5371 18.2686 13.7829C19.5486 14.9714 19.8114 15.5486 19.8571 15.6229C20.3886 16.5029 19.2686 16.5714 19.2686 16.5714Z" fill="#601DC0"/>
</svg>
