<svg width="24" height="17" viewBox="0 0 24 17" fill="none" xmlns="http://www.w3.org/2000/svg">
<path d="M23.3301 2.92188C23.1082 1.75354 22.0511 0.90271 20.8244 0.637085C18.9886 0.265625 15.5911 0 11.9152 0C8.24144 0 4.78956 0.265625 2.9516 0.637085C1.72703 0.90271 0.667754 1.69959 0.445894 2.92188C0.22186 4.25 0 6.10938 0 8.5C0 10.8906 0.22186 12.75 0.500272 14.0781C0.724307 15.2465 1.7814 16.0973 3.00598 16.3629C4.95487 16.7344 8.29581 17 11.9717 17C15.6476 17 18.9886 16.7344 20.9375 16.3629C22.162 16.0973 23.2191 15.3004 23.4432 14.0781C23.665 12.75 23.9434 10.8367 24 8.5C23.8869 6.10938 23.6085 4.25 23.3301 2.92188ZM8.90919 12.2188V4.78125L15.702 8.5L8.90919 12.2188Z" fill="#601DC0"/>
</svg>
