<svg width="14" height="13" viewBox="0 0 14 13" fill="none" xmlns="http://www.w3.org/2000/svg">
<path d="M3.27828 12.089H2.30973C1.83987 12.089 1.45898 11.6545 1.45898 11.1186V5.04929C1.45898 4.51333 1.83987 4.07886 2.30973 4.07886H3.27828C3.74814 4.07886 4.12903 4.51333 4.12903 5.04929V11.1186C4.12903 11.6545 3.74814 12.089 3.27828 12.089Z" fill="#80B6FF" stroke="black" stroke-linejoin="round"/>
<path d="M4.13013 10.76V4.92538C4.13013 4.54135 4.29749 4.17611 4.58912 3.92367L7.6909 1.14507C8.13279 0.749232 8.81689 0.793892 9.20272 1.24376C9.49368 1.58305 9.53668 2.06781 9.30993 2.45232L8.20787 4.32096L11.1815 4.32101C12.3009 4.32101 13.2083 5.2215 13.2083 6.3323C13.2083 6.56493 13.1677 6.79552 13.0882 7.01436C12.7898 7.83543 12.0068 9.9899 11.5629 11.2113C11.3714 11.7383 10.8676 12.0892 10.303 12.0892H5.46955C4.72979 12.0892 4.13013 11.4941 4.13013 10.76Z" fill="#FAF7F5" stroke="black" stroke-linejoin="round"/>
</svg>
