<svg width="30" height="30" viewBox="0 0 30 30" fill="none" xmlns="http://www.w3.org/2000/svg">
<path fill-rule="evenodd" clip-rule="evenodd" d="M9.07 8.20557H7.12972C6.38396 8.20557 6 8.34017 6 8.99076V9.73109C6 10.382 6.38396 10.5163 7.12972 10.5163H7.57763C7.85473 10.5163 7.98234 10.6736 7.98234 11.1223V20.8163C7.98234 21.6018 8.11052 22.0056 8.72895 22.0056H9.4534C10.0718 22.0056 10.2 21.6018 10.2 20.8163V8.99076C10.2 8.34017 9.81604 8.20557 9.07 8.20557Z" fill="#601DC0"/>
<mask id="mask0" mask-type="alpha" maskUnits="userSpaceOnUse" x="0" y="0" width="30" height="30">
<path fill-rule="evenodd" clip-rule="evenodd" d="M0 0H29.85V29.8054H0V0Z" fill="white"/>
</mask>
<g mask="url(#mask0)">
<path fill-rule="evenodd" clip-rule="evenodd" d="M27.8857 13.2312C27.8857 13.5702 27.7274 13.7504 27.4114 13.7504H25.8989V12.6895C25.8989 11.8994 25.7857 11.4927 25.1082 11.4927H24.4307C23.7538 11.4927 23.6406 11.8994 23.6406 12.6895V13.7504H22.5796C21.7895 13.7504 21.3826 13.8636 21.3826 14.5408V15.2635C21.3826 15.9407 21.7895 16.0539 22.5796 16.0539H23.6406V17.1149C23.6406 17.905 23.7538 18.3116 24.4307 18.3116H25.1082C25.7857 18.3116 25.8989 17.905 25.8989 17.1149V16.0539H27.4114C27.7051 16.0539 27.8632 16.2119 27.8857 16.5051V19.9373C27.8857 20.7728 27.6371 21.4049 27.0502 21.9696L22.0149 27.0045C21.4277 27.5917 20.7731 27.8629 19.9604 27.8629H9.8896C9.07693 27.8629 8.42228 27.5917 7.83505 27.0045L2.8001 21.9696C2.21287 21.3823 1.94139 20.7728 1.96426 19.9373V9.97995C1.96426 9.14441 2.23574 8.42174 2.84525 7.81223L7.9705 2.61867C8.49 2.09976 9.14465 1.94144 9.8896 1.94144H19.9604C20.7053 1.94144 21.36 2.09976 21.8795 2.61867L27.0051 7.81223C27.592 8.42174 27.8857 9.14441 27.8857 9.97995V13.2312ZM23.2565 1.30936C22.3761 0.451538 21.27 -0.000244141 19.9375 -0.000244141H9.91218C8.58 -0.000244141 7.45099 0.451538 6.59317 1.30936L1.28673 6.59292C0.451782 7.42847 0 8.53461 0 9.75421V19.9373C0 21.3372 0.474356 22.421 1.42248 23.3472L6.45772 28.3821C7.45099 29.3757 8.55743 29.8272 9.9802 29.8046H19.8701C21.2471 29.8046 22.3761 29.398 23.3923 28.3821L28.4275 23.3472C29.3531 22.421 29.85 21.3146 29.85 19.9373V9.75421C29.85 8.53461 29.3985 7.42847 28.563 6.59292L23.2565 1.30936Z" fill="#601DC0"/>
</g>
<path fill-rule="evenodd" clip-rule="evenodd" d="M16.1997 19.8474C14.7853 19.8474 14.2767 19.28 14.2767 17.8488C14.2767 16.4177 14.7853 15.7592 16.1997 15.7592C17.6144 15.7592 18.123 16.4177 18.123 17.8488C18.123 19.28 17.6144 19.8474 16.1997 19.8474ZM16.1997 9.69514C17.4158 9.69514 17.902 10.1493 17.902 11.6713C17.902 13.1472 17.4158 13.6474 16.1997 13.6474C14.9842 13.6474 14.4977 13.1472 14.4977 11.6713C14.4977 10.1493 14.9842 9.69514 16.1997 9.69514ZM18.8082 14.5784C20.0461 13.6474 20.0682 12.6934 20.0682 11.921V11.149C19.9356 8.58218 19.0958 7.60547 16.1997 7.60547C13.3042 7.60547 12.4641 8.58218 12.3312 11.149V11.921C12.3312 12.6934 12.3533 13.6474 13.5912 14.5784C12.1102 15.1688 12 16.4637 12 18.1667C12 20.6878 12.8616 21.937 16.1997 22.0055C19.5378 21.937 20.4 20.6878 20.4 18.1667C20.4 16.4637 20.2895 15.1688 18.8082 14.5784Z" fill="#601DC0"/>
</svg>
