<svg width="80" height="80" viewBox="0 0 80 80" fill="none" xmlns="http://www.w3.org/2000/svg">
<path d="M77.446 33.2927L78.1264 32.6444L77.446 33.2928C79.2455 35.181 79.5122 38.066 78.0885 40.255L78.8581 40.7556L78.0885 40.2551C76.7169 42.3641 76.4721 45.0162 77.434 47.3417L78.3581 46.9595L77.434 47.3417C78.4331 49.7568 77.6419 52.543 75.5285 54.0665C73.4891 55.5366 72.3063 57.9218 72.3661 60.4385L73.3658 60.4148L72.3661 60.4386C72.4284 63.0532 70.688 65.3627 68.1709 66.0166C65.7387 66.6484 63.7762 68.4449 62.9261 70.8141C62.0433 73.2735 59.5908 74.7952 57.0094 74.4926C54.5136 74.2 52.0359 75.1639 50.3894 77.0658C48.6825 79.0374 45.8493 79.5681 43.5502 78.3496L43.0819 79.2331L43.5501 78.3495C41.3289 77.1724 38.6711 77.1724 36.4499 78.3495L36.8749 79.1515L36.4498 78.3496C34.1506 79.5682 31.3175 79.0375 29.6106 77.0658L28.8546 77.7203L29.6106 77.0658C27.9641 75.1639 25.4864 74.2 22.9906 74.4926C20.4091 74.7952 17.9564 73.2736 17.0739 70.8141V70.814C16.2235 68.4449 14.2613 66.6486 11.8292 66.0167C9.31195 65.3627 7.57157 63.0534 7.63385 60.4386C7.69391 57.9219 6.51108 55.5366 4.47147 54.0665C2.35803 52.543 1.56692 49.7566 2.56593 47.3418L2.56594 47.3417C3.52789 45.0162 3.28307 42.3641 1.91145 40.2551L1.15609 40.7463L1.91144 40.255C0.48774 38.066 0.754435 35.181 2.55394 33.2928L1.85056 32.6225L2.55395 33.2927C4.28893 31.4721 5.01499 28.9097 4.49522 26.447C3.95533 23.8882 5.24327 21.2963 7.59863 20.189H7.59866C9.87323 19.1196 11.4729 16.9926 11.8747 14.5073C12.2923 11.9261 14.4253 9.97768 17.0184 9.79917L16.9499 8.80436L17.0184 9.79917C19.5252 9.6266 21.7837 8.22243 23.0534 6.04986C24.3709 3.79594 27.0595 2.7523 29.5418 3.52592L29.8393 2.57121L29.5418 3.52592C31.9413 4.27371 34.5534 3.78322 36.5208 2.21701C38.5594 0.59428 41.4414 0.594413 43.4791 2.21691C45.4465 3.78346 48.0587 4.27369 50.4582 3.52592C52.9408 2.75228 55.6293 3.79597 56.9465 6.04981L56.9466 6.04987C58.2165 8.22237 60.4747 9.62659 62.9816 9.79917L63.0503 8.80153L62.9816 9.79917C65.5748 9.97769 67.7079 11.9262 68.1253 14.5073V14.5074C68.5273 16.9923 70.1267 19.1195 72.4013 20.189L72.8204 19.2977L72.4013 20.189C74.7568 21.2963 76.0448 23.8884 75.5048 26.4469C74.985 28.9099 75.7111 31.4721 77.446 33.2927Z" fill="#FFCC7E" stroke="#EEB45C" stroke-width="2"/>
<path d="M40 68C55.464 68 68 55.464 68 40C68 24.536 55.464 12 40 12C24.536 12 12 24.536 12 40C12 55.464 24.536 68 40 68Z" fill="#FFE97E"/>
<path fill-rule="evenodd" clip-rule="evenodd" d="M33 67.2678C35.0521 67.7468 37.1908 68 39.3888 68C54.8527 68 67.3888 55.464 67.3888 40C67.3888 24.536 54.8527 12 39.3888 12C37.1908 12 35.052 12.2532 33 12.7322C45.3855 15.6227 54.6112 26.734 54.6112 40C54.6112 53.266 45.3855 64.3773 33 67.2678Z" fill="#FFE461"/>
<path fill-rule="evenodd" clip-rule="evenodd" d="M11.0041 37.3644C12.3419 22.5795 24.8157 11 40.0001 11C55.1845 11 67.6582 22.5795 68.996 37.3644C69.0458 37.9144 68.6402 38.4007 68.0902 38.4504C67.5401 38.5002 67.0539 38.0947 67.0041 37.5446C65.7593 23.7875 54.1471 13 40.0001 13C25.8531 13 14.2408 23.7875 12.996 37.5446C12.9462 38.0947 12.46 38.5002 11.9099 38.4504C11.3599 38.4007 10.9544 37.9144 11.0041 37.3644ZM11.9099 41.5496C12.46 41.4998 12.9462 41.9053 12.996 42.4554C14.2408 56.2125 25.8531 67 40.0001 67C54.1471 67 65.7593 56.2126 67.0041 42.4554C67.0539 41.9053 67.5401 41.4998 68.0902 41.5496C68.6402 41.5993 69.0458 42.0856 68.996 42.6356C67.6582 57.4206 55.1845 69 40.0001 69C24.8157 69 12.3419 57.4205 11.0041 42.6356C10.9544 42.0856 11.3599 41.5993 11.9099 41.5496Z" fill="#EEB45C"/>
<path d="M31.1879 33.5455C30.6642 32.6936 30.6636 32.6939 30.663 32.6943L30.6617 32.6951L30.6588 32.6969L30.6519 32.7012L30.6333 32.7131C30.6187 32.7225 30.6001 32.7347 30.5776 32.7499C30.5326 32.7804 30.4721 32.8228 30.3984 32.8779C30.2511 32.988 30.0508 33.149 29.8156 33.3665C29.3449 33.8017 28.7343 34.4636 28.1295 35.3976C26.9141 37.2748 25.75 40.2088 25.75 44.5252C25.75 44.5477 25.7508 44.5703 25.7523 44.5929C26.0856 49.5045 28.3431 52.7603 30.9072 54.8178C33.4388 56.8492 36.2592 57.7088 37.815 57.9101L37.8168 57.9104C41.9936 58.4432 46.649 57.6882 50.0421 54.5824L50.0471 54.5778C53.7543 51.1379 55.1247 45.6405 53.1222 40.8327C52.3623 38.8636 51.0982 37.4083 49.7734 36.1751C49.1746 35.6176 48.5493 35.0932 47.9517 34.592C47.8904 34.5405 47.8294 34.4894 47.7687 34.4384C47.1079 33.8835 46.4848 33.3534 45.9166 32.7964C44.7876 31.6896 43.931 30.5293 43.5417 29.0332C43.1517 27.5346 43.1985 25.5735 44.1188 22.8166C44.2445 22.44 44.1355 22.0246 43.841 21.7583C43.5465 21.492 43.1223 21.4251 42.7601 21.588C36.0242 24.6169 30.3937 31.8835 33.1302 41.6162C33.2388 42.0024 33.0866 42.2849 32.9793 42.3763C32.9787 42.3768 32.978 42.3774 32.9774 42.3779C32.9587 42.3624 32.9332 42.3376 32.9016 42.2987C31.5263 40.6085 31.2971 38.5637 31.4508 36.8496C31.527 35.9994 31.6957 35.2586 31.8456 34.731C31.9203 34.4682 31.9895 34.261 32.0388 34.1225C32.0634 34.0534 32.083 34.0016 32.0956 33.9689L32.1092 33.9344L32.1113 33.9293C32.1114 33.929 32.1116 33.9286 32.1117 33.9283C32.2775 33.5282 32.1669 33.0667 31.8375 32.7852C31.5077 32.5034 31.0337 32.4663 30.6642 32.6936L31.1879 33.5455ZM31.7175 34.3937L31.7171 34.394L31.7175 34.3937ZM32.9464 42.3989C32.9464 42.3989 32.9472 42.3985 32.9487 42.398C32.9472 42.3988 32.9464 42.399 32.9464 42.3989ZM33.0079 42.3993C33.0121 42.4005 33.0141 42.4015 33.0141 42.4018C33.0141 42.402 33.012 42.4014 33.0079 42.3993Z" fill="#F58343" stroke="black" stroke-width="2" stroke-linejoin="round"/>
<path d="M36.7013 48.5004C36.333 48.5899 36.0469 48.88 35.9626 49.2496C35.8782 49.6191 36.0101 50.0046 36.3031 50.2451C38.9471 52.415 41.6998 52.6181 43.8195 51.4714C45.8714 50.3614 47.1474 48.0736 47.0763 45.6426C47.0685 43.4993 45.5215 41.902 44.3017 40.6743C44.2081 40.5801 44.1157 40.4876 44.0247 40.3965C43.472 39.843 42.9694 39.3397 42.5525 38.816C42.073 38.2136 41.7809 37.6711 41.6863 37.1352C41.6082 36.6928 41.2448 36.3568 40.7978 36.3136C40.3507 36.2704 39.9296 36.5305 39.7683 36.9497C38.9548 39.0629 39.1615 40.7869 39.4645 42.2117C39.5266 42.5037 39.5868 42.7606 39.6429 42.9999C39.7308 43.3748 39.8085 43.7064 39.8675 44.0623C39.9567 44.6005 39.9697 45.0403 39.875 45.4504L39.8723 45.4628C39.6169 46.6375 38.6612 48.024 36.7013 48.5004Z" fill="#EA5B2E" stroke="black" stroke-width="2" stroke-linejoin="round"/>
</svg>
