<svg width="49" height="24" viewBox="0 0 49 24" fill="none" xmlns="http://www.w3.org/2000/svg">
<path d="M0.5 6C0.5 2.68629 3.18629 0 6.5 0H42.5C45.8137 0 48.5 2.68629 48.5 6V18C48.5 21.3137 45.8137 24 42.5 24H6.5C3.18629 24 0.5 21.3137 0.5 18V6Z" fill="white"/>
<path d="M1.5 6C1.5 3.23858 3.73858 1 6.5 1H42.5C45.2614 1 47.5 3.23858 47.5 6V18C47.5 20.7614 45.2614 23 42.5 23H6.5C3.73858 23 1.5 20.7614 1.5 18V6Z" stroke="#601DC0" stroke-opacity="0.16" stroke-width="2"/>
<path d="M11.3778 6C12.2394 6 12.9343 6.24571 13.4627 6.73714C13.9912 7.21714 14.2554 7.90286 14.2554 8.79429V15.1886C14.2554 16.08 13.9912 16.7714 13.4627 17.2629C12.9343 17.7543 12.2394 18 11.3778 18H9V6H11.3778ZM12.8424 15.0171V8.96571C12.8424 7.86857 12.3485 7.32 11.3606 7.32H10.4301V16.68H11.3606C12.3485 16.68 12.8424 16.1257 12.8424 15.0171Z" fill="black"/>
<path d="M17.1609 16.68H20.4347V18H15.7307V6H20.4175V7.32H17.1609V11.3657H20.2624V12.7029H17.1609V16.68Z" fill="black"/>
<path d="M27.1147 18H25.5812L24.1338 13.44H23.1344V18H21.7043V6H24.1166C24.9781 6 25.6558 6.22857 26.1498 6.68571C26.6552 7.13143 26.9079 7.77143 26.9079 8.60571V10.8171C26.9079 11.96 26.4484 12.7429 25.5295 13.1657L27.1147 18ZM23.1344 7.32V12.12H24.0993C25.0298 12.12 25.495 11.6286 25.495 10.6457V8.81143C25.495 8.28571 25.3801 7.90857 25.1504 7.68C24.9206 7.44 24.5703 7.32 24.0993 7.32H23.1344Z" fill="black"/>
<path d="M32.4682 12.0343C33.2608 12.4571 33.6571 13.1714 33.6571 14.1771V15.5486C33.6571 16.3371 33.4159 16.9429 32.9334 17.3657C32.4509 17.7886 31.8019 18 30.9863 18H28.3845V6H30.9519C31.7675 6 32.4107 6.21143 32.8817 6.63429C33.3642 7.04571 33.6054 7.65143 33.6054 8.45143V9.89143C33.6054 10.8743 33.2263 11.5886 32.4682 12.0343ZM32.1925 8.67429C32.1925 7.77143 31.7617 7.32 30.9002 7.32H29.8147V11.3657H30.9174C31.7675 11.3657 32.1925 10.9029 32.1925 9.97714V8.67429ZM32.2442 15.2914V14.04C32.2442 13.1371 31.8134 12.6857 30.9519 12.6857H29.8147V16.68H30.9174C31.8019 16.68 32.2442 16.2171 32.2442 15.2914Z" fill="black"/>
<path d="M38.5009 6H40L37.7945 13.4229V18H36.3816V13.3714L34.2105 6H35.7096L37.1052 11.3486L38.5009 6Z" fill="black"/>
</svg>
