<svg width="81" height="80" viewBox="0 0 81 80" fill="none" xmlns="http://www.w3.org/2000/svg">
<path d="M77.946 33.2927L78.6264 32.6444L77.946 33.2928C79.7455 35.181 80.0122 38.066 78.5885 40.255L79.3581 40.7556L78.5885 40.2551C77.2169 42.3641 76.9721 45.0162 77.934 47.3417L78.8581 46.9595L77.934 47.3417C78.9331 49.7568 78.1419 52.543 76.0285 54.0665C73.9891 55.5366 72.8063 57.9218 72.8661 60.4385L73.8658 60.4148L72.8661 60.4386C72.9284 63.0532 71.188 65.3627 68.6709 66.0166C66.2387 66.6484 64.2762 68.4449 63.4261 70.8141C62.5433 73.2735 60.0908 74.7952 57.5094 74.4926C55.0136 74.2 52.5359 75.1639 50.8894 77.0658C49.1825 79.0374 46.3493 79.5681 44.0502 78.3496L43.5819 79.2331L44.0501 78.3495C41.8289 77.1724 39.1711 77.1724 36.9499 78.3495L37.3749 79.1515L36.9498 78.3496C34.6506 79.5682 31.8175 79.0375 30.1106 77.0658L29.3546 77.7203L30.1106 77.0658C28.4641 75.1639 25.9864 74.2 23.4906 74.4926C20.9091 74.7952 18.4564 73.2736 17.5739 70.8141L17.5739 70.814C16.7235 68.4449 14.7613 66.6486 12.3292 66.0167C9.81196 65.3627 8.07158 63.0534 8.13386 60.4386C8.19392 57.9219 7.01109 55.5366 4.97148 54.0665C2.85804 52.543 2.06693 49.7566 3.06594 47.3418L3.06595 47.3417C4.0279 45.0162 3.78308 42.3641 2.41146 40.2551L1.6561 40.7463L2.41145 40.255C0.987748 38.066 1.25444 35.181 3.05395 33.2928L2.35057 32.6225L3.05396 33.2927C4.78894 31.4721 5.515 28.9097 4.99523 26.447C4.45534 23.8882 5.74328 21.2963 8.09864 20.189L8.09867 20.189C10.3732 19.1196 11.9729 16.9926 12.3747 14.5073C12.7923 11.9261 14.9253 9.97768 17.5184 9.79917L17.4499 8.80436L17.5184 9.79917C20.0252 9.6266 22.2837 8.22243 23.5534 6.04986C24.8709 3.79594 27.5595 2.7523 30.0418 3.52592L30.3393 2.57121L30.0418 3.52592C32.4413 4.27371 35.0534 3.78322 37.0208 2.21701C39.0594 0.59428 41.9414 0.594413 43.9791 2.21691C45.9465 3.78346 48.5587 4.27369 50.9582 3.52592C53.4408 2.75228 56.1293 3.79597 57.4465 6.04981L57.4466 6.04987C58.7165 8.22237 60.9747 9.62659 63.4816 9.79917L63.5503 8.80153L63.4816 9.79917C66.0748 9.97769 68.2079 11.9262 68.6253 14.5073L68.6253 14.5074C69.0273 16.9923 70.6267 19.1195 72.9013 20.189L73.3204 19.2977L72.9013 20.189C75.2568 21.2963 76.5448 23.8884 76.0048 26.4469C75.485 28.9099 76.2111 31.4721 77.946 33.2927Z" fill="#FFCC7E" stroke="#EEB45C" stroke-width="2"/>
<path d="M40.5 68C55.964 68 68.5 55.464 68.5 40C68.5 24.536 55.964 12 40.5 12C25.036 12 12.5 24.536 12.5 40C12.5 55.464 25.036 68 40.5 68Z" fill="#FFE97E"/>
<path fill-rule="evenodd" clip-rule="evenodd" d="M33.5 67.2678C35.5521 67.7468 37.6908 68 39.8888 68C55.3527 68 67.8888 55.464 67.8888 40C67.8888 24.536 55.3527 12 39.8888 12C37.6908 12 35.552 12.2532 33.5 12.7322C45.8855 15.6227 55.1112 26.734 55.1112 40C55.1112 53.266 45.8855 64.3773 33.5 67.2678Z" fill="#FFE461"/>
<path fill-rule="evenodd" clip-rule="evenodd" d="M40.5001 13C26.3531 13 14.7408 23.7875 13.496 37.5447C13.4462 38.0947 12.96 38.5002 12.4099 38.4505C11.8599 38.4007 11.4544 37.9145 11.5041 37.3644C12.8419 22.5794 25.3156 11 40.5001 11C55.6845 11 68.1582 22.5794 69.496 37.3644C69.5458 37.9145 69.1402 38.4007 68.5902 38.4505C68.0401 38.5002 67.5539 38.0947 67.5041 37.5447C66.2593 23.7875 54.6471 13 40.5001 13ZM12.4099 41.5495C12.96 41.4998 13.4462 41.9053 13.496 42.4553C14.7408 56.2125 26.3531 67 40.5001 67C54.6471 67 66.2593 56.2125 67.5041 42.4554C67.5539 41.9053 68.0401 41.4998 68.5902 41.5495C69.1402 41.5993 69.5458 42.0856 69.496 42.6356C68.1582 57.4206 55.6845 69 40.5001 69C25.3156 69 12.8419 57.4206 11.5041 42.6356C11.4544 42.0855 11.8599 41.5993 12.4099 41.5495Z" fill="#EEB45C"/>
<path d="M25.5 35L29.0892 52.9461C29.1827 53.4135 29.5931 53.75 30.0698 53.75H50.9302C51.4069 53.75 51.8173 53.4135 51.9108 52.9461L55.5 35L48.3775 40.0875C47.4786 40.7295 46.2295 40.5214 45.5875 39.6225L40.5 32.5L35.4125 39.6225C34.7705 40.5214 33.5214 40.7295 32.6225 40.0875L25.5 35Z" fill="#FFD600" stroke="black" stroke-width="2"/>
<circle cx="40.5" cy="30" r="3.5" fill="#FF9900" stroke="black" stroke-width="2"/>
<circle cx="25.5" cy="35" r="3.5" fill="#FF9900" stroke="black" stroke-width="2"/>
<circle cx="55.5" cy="35" r="3.5" fill="#FF9900" stroke="black" stroke-width="2"/>
</svg>
