<svg width="22" height="22" viewBox="0 0 22 22" fill="none" xmlns="http://www.w3.org/2000/svg">
<path fill-rule="evenodd" clip-rule="evenodd" d="M3.50921 4.4C3.37385 4.04671 3.3 3.66456 3.3 3.26562C3.3 1.46214 4.8117 0 6.6768 0C7.88315 0 9.79795 1.43999 11 2.94511C12.2021 1.43999 14.1171 0 15.3232 0C17.1883 0 18.7 1.46214 18.7 3.26562C18.7 3.66456 18.6262 4.04671 18.4908 4.4H19.8C21.015 4.4 22 5.38493 22 6.6V9.9C22 10.7218 21.5493 11.4382 20.8817 11.816C20.8938 11.9089 20.9 12.0037 20.9 12.1V19.8C20.9 21.0151 19.9149 22 18.7 22H3.3C2.08506 22 1.1 21.0151 1.1 19.8V12.1C1.1 12.0608 1.10108 12.0217 1.10296 11.983C1.10591 11.9266 1.11101 11.8711 1.11826 11.816C0.450635 11.4382 0 10.7218 0 9.9V6.6C0 5.38493 0.985059 4.4 2.2 4.4H3.50921ZM13.3913 3.82471C13.6094 3.8288 13.8486 3.82342 14.1066 3.81326C14.219 3.80882 14.3414 3.80298 14.4677 3.79691C14.7766 3.78219 15.11 3.76631 15.3824 3.76631C15.9198 3.76631 16.2609 3.29154 16.2609 2.83944C16.2609 2.39551 15.9319 1.92962 15.4112 1.91304C15.4089 1.9176 15.2745 1.94902 14.9959 2.14021C14.6834 2.35452 14.3226 2.67874 13.9778 3.06731C13.7535 3.32016 13.5543 3.57933 13.3913 3.82471ZM8.77977 6.69565H1.91304V9.56522H9.56522V6.69565H8.83315C8.81553 6.69565 8.79765 6.69565 8.77977 6.69565ZM12.4348 6.69565H20.087V9.56522H12.4348V6.69565ZM9.56522 12.4348H2.86957V20.087H9.56522V12.4348ZM12.4348 20.087V12.4348H19.1304V20.087H12.4348ZM7.89341 3.81326C8.15141 3.82342 8.39058 3.8288 8.6087 3.82471C8.44571 3.57933 8.24644 3.32016 8.02211 3.06731C7.6773 2.67874 7.31665 2.35452 7.00411 2.14021C6.77256 1.98137 6.64066 1.93278 6.60136 1.9183C6.59334 1.91538 6.58874 1.91304 6.58874 1.91304C6.0681 1.92962 5.73913 2.39551 5.73913 2.83944C5.73913 3.29154 6.08013 3.76631 6.6176 3.76631C6.89004 3.76631 7.22343 3.78219 7.53236 3.79691C7.65866 3.80298 7.78094 3.80882 7.89341 3.81326Z" fill="#601DC0"/>
</svg>
