<svg width="142" height="30" viewBox="0 0 142 30" fill="none" xmlns="http://www.w3.org/2000/svg">
<mask id="mask0" mask-type="alpha" maskUnits="userSpaceOnUse" x="0" y="0" width="56" height="30">
<path fill-rule="evenodd" clip-rule="evenodd" d="M0 0H56V30H0V0Z" fill="white"/>
</mask>
<g mask="url(#mask0)">
<path fill-rule="evenodd" clip-rule="evenodd" d="M1.344 30C0.601615 30 0 29.4145 0 28.692V1.308C0 0.5855 0.601615 0 1.344 0H49.3869C53.0397 0 56 2.8815 56 6.436V28.692C56 29.4145 55.3984 30 54.656 30H1.344Z" fill="#601DC0"/>
</g>
<path fill-rule="evenodd" clip-rule="evenodd" d="M41.2106 6.625V9.217H38.2067V23.425H35.5604V9.217H32.5322V6.625H41.2106Z" fill="white"/>
<path fill-rule="evenodd" clip-rule="evenodd" d="M45.1337 16.561H48.0189L46.588 9.6965L45.1337 16.561ZM49.2819 23.425L48.3283 19.249H44.8476L43.8702 23.425H41.2239L44.8953 6.625H48.2568L51.9282 23.425H49.2819Z" fill="white"/>
<path d="M20.4878 6.625H30.0943V9.125H24.6398L27.7713 14.9963L24.6216 20.9768L30.101 21.0068L30.0875 23.5068L20.506 23.4543L24.9566 15.0037L20.4878 6.625Z" fill="white"/>
<path d="M11.5491 14.1902L15.6364 6.64733L18.1101 6.64355L18.146 23.3604L15.6571 23.3657L15.6364 11.8246L11.5501 18.8036L7.4411 11.8246L7.4411 23.3631H4.95221L4.95221 6.64733L7.4411 6.64733L11.5491 14.1902Z" fill="white"/>
<path d="M70.7188 11.8633V14.1836H72.7637C73.1699 14.1836 73.4746 14.1367 73.6777 14.043C74.0371 13.8789 74.2168 13.5547 74.2168 13.0703C74.2168 12.5469 74.043 12.1953 73.6953 12.0156C73.5 11.9141 73.207 11.8633 72.8164 11.8633H70.7188ZM73.1914 10.3633C73.7969 10.375 74.2617 10.4492 74.5859 10.5859C74.9141 10.7227 75.1914 10.9238 75.418 11.1895C75.6055 11.4082 75.7539 11.6504 75.8633 11.916C75.9727 12.1816 76.0273 12.4844 76.0273 12.8242C76.0273 13.2344 75.9238 13.6387 75.7168 14.0371C75.5098 14.4316 75.168 14.7109 74.6914 14.875C75.0898 15.0352 75.3711 15.2637 75.5352 15.5605C75.7031 15.8535 75.7871 16.3027 75.7871 16.9082V17.4883C75.7871 17.8828 75.8027 18.1504 75.834 18.291C75.8809 18.5137 75.9902 18.6777 76.1621 18.7832V19H74.1758C74.1211 18.8086 74.082 18.6543 74.0586 18.5371C74.0117 18.2949 73.9863 18.0469 73.9824 17.793L73.9707 16.9902C73.9629 16.4395 73.8613 16.0723 73.666 15.8887C73.4746 15.7051 73.1133 15.6133 72.582 15.6133H70.7188V19H68.9551V10.3633H73.1914ZM79.9473 15.7363H82.1387L81.0605 12.3379L79.9473 15.7363ZM80.0586 10.3633H82.0977L85.1562 19H83.1992L82.6426 17.2246H79.4609L78.8633 19H76.9766L80.0586 10.3633ZM91.6426 10.3633V11.8926H89.0586V19H87.2422V11.8926H84.6465V10.3633H91.6426ZM94.3555 19H92.5625V10.3633H94.3555V19ZM96.0137 10.3633H97.9062L101.346 16.3926V10.3633H103.027V19H101.223L97.6953 12.8652V19H96.0137V10.3633ZM110.521 13.0586C110.385 12.4688 110.051 12.0566 109.52 11.8223C109.223 11.6934 108.893 11.6289 108.529 11.6289C107.834 11.6289 107.262 11.8926 106.812 12.4199C106.367 12.9434 106.145 13.7324 106.145 14.7871C106.145 15.8496 106.387 16.6016 106.871 17.043C107.355 17.4844 107.906 17.7051 108.523 17.7051C109.129 17.7051 109.625 17.5312 110.012 17.1836C110.398 16.832 110.637 16.373 110.727 15.8066H108.729V14.3652H112.326V19H111.131L110.949 17.9219C110.602 18.332 110.289 18.6211 110.012 18.7891C109.535 19.082 108.949 19.2285 108.254 19.2285C107.109 19.2285 106.172 18.832 105.441 18.0391C104.68 17.2422 104.299 16.1523 104.299 14.7695C104.299 13.3711 104.684 12.25 105.453 11.4062C106.223 10.5625 107.24 10.1406 108.506 10.1406C109.604 10.1406 110.484 10.4199 111.148 10.9785C111.816 11.5332 112.199 12.2266 112.297 13.0586H110.521ZM115.361 16.334C115.416 16.7285 115.523 17.0234 115.684 17.2188C115.977 17.5742 116.479 17.752 117.189 17.752C117.615 17.752 117.961 17.7051 118.227 17.6113C118.73 17.4316 118.982 17.0977 118.982 16.6094C118.982 16.3242 118.857 16.1035 118.607 15.9473C118.357 15.7949 117.965 15.6602 117.43 15.543L116.516 15.3379C115.617 15.1348 114.996 14.9141 114.652 14.6758C114.07 14.2773 113.779 13.6543 113.779 12.8066C113.779 12.0332 114.061 11.3906 114.623 10.8789C115.186 10.3672 116.012 10.1113 117.102 10.1113C118.012 10.1113 118.787 10.3535 119.428 10.8379C120.072 11.3184 120.41 12.0176 120.441 12.9355H118.707C118.676 12.416 118.449 12.0469 118.027 11.8281C117.746 11.6836 117.396 11.6113 116.979 11.6113C116.514 11.6113 116.143 11.7051 115.865 11.8926C115.588 12.0801 115.449 12.3418 115.449 12.6777C115.449 12.9863 115.586 13.2168 115.859 13.3691C116.035 13.4707 116.41 13.5898 116.984 13.7266L118.473 14.084C119.125 14.2402 119.617 14.4492 119.949 14.7109C120.465 15.1172 120.723 15.7051 120.723 16.4746C120.723 17.2637 120.42 17.9199 119.814 18.4434C119.213 18.9629 118.361 19.2227 117.26 19.2227C116.135 19.2227 115.25 18.9668 114.605 18.4551C113.961 17.9395 113.639 17.2324 113.639 16.334H115.361Z" fill="black"/>
<path d="M137.06 12.7266L134 15.7799L130.94 12.7266L130 13.6666L134 17.6666L138 13.6666L137.06 12.7266Z" fill="black"/>
</svg>
