<svg width="24" height="24" viewBox="0 0 24 24" fill="none" xmlns="http://www.w3.org/2000/svg">
<path fill-rule="evenodd" clip-rule="evenodd" d="M24 2.66667C24 1.19391 22.8061 0 21.3333 0H2.66667C1.19391 0 0 1.19391 0 2.66667V21.3333C0 22.8061 1.19391 24 2.66667 24H21.3333C22.8061 24 24 22.8061 24 21.3333V2.66667ZM16.458 13.193C16.7292 11.9569 17.0004 10.7209 17.2729 9.48492C17.3819 8.96977 17.4958 8.44967 17.5998 8.02367C17.5998 7.36983 17.0797 7.05281 16.5101 7.26581C15.4451 7.66702 14.3814 8.06947 13.3177 8.47191C12.254 8.87439 11.1902 9.27686 10.1252 9.6781C8.52027 10.2874 6.91538 10.8917 5.31048 11.496C5.26095 11.5108 5.21637 11.5307 5.17179 11.5505C4.93403 11.6495 4.79038 11.818 4.80029 12.0805C4.81019 12.3381 4.95879 12.5015 5.20151 12.5857C5.41439 12.6597 5.62773 12.7328 5.84125 12.8059C6.32826 12.9727 6.8162 13.1398 7.30174 13.3188C7.80203 13.5021 8.25279 13.4476 8.7085 13.1554C9.83398 12.4316 10.9656 11.7161 12.0968 11.0008C12.723 10.6049 13.3491 10.209 13.9739 9.81184L13.9822 9.8067C14.0983 9.734 14.2143 9.66137 14.3256 9.79203C14.4495 9.93568 14.3405 10.0496 14.2365 10.1487L14.2365 10.1487C14.2117 10.1685 14.1869 10.1883 14.1622 10.2131C12.8941 11.4316 11.626 12.6501 10.3629 13.8687C10.0162 14.2055 10.041 14.5324 10.4273 14.8197C10.6502 14.9881 10.8781 15.1516 11.1059 15.315C11.4559 15.5676 11.8054 15.8208 12.1549 16.074C12.8539 16.5803 13.5529 17.0867 14.2563 17.5886C14.7665 17.9502 15.4104 17.7273 15.5887 17.1428C15.6034 17.0959 15.6129 17.0471 15.6223 16.9987C15.6287 16.9655 15.6352 16.9324 15.6432 16.9001C15.9156 15.6644 16.1868 14.4287 16.458 13.193Z" fill="#601DC0"/>
</svg>
