<svg width="18" height="16" viewBox="0 0 18 16" fill="none" xmlns="http://www.w3.org/2000/svg">
<path d="M7.05 10.0001H2.25C1.85218 10.0001 1.47064 9.84204 1.18934 9.56073C0.908035 9.27943 0.75 8.8979 0.75 8.50007V6.92207C0.749798 6.72605 0.788017 6.53189 0.862499 6.35057L3.18375 0.714321C3.24038 0.576908 3.33655 0.459417 3.46007 0.37676C3.58359 0.294104 3.72888 0.250009 3.8775 0.250072H16.5C16.6989 0.250072 16.8897 0.329088 17.0303 0.469741C17.171 0.610394 17.25 0.801159 17.25 1.00007V8.50007C17.25 8.69898 17.171 8.88975 17.0303 9.0304C16.8897 9.17105 16.6989 9.25007 16.5 9.25007H13.8885C13.7684 9.25004 13.6501 9.27884 13.5435 9.33405C13.4368 9.38925 13.345 9.46925 13.2758 9.56732L9.186 15.3626C9.1343 15.4358 9.05806 15.4882 8.9711 15.51C8.88414 15.5319 8.79222 15.5219 8.712 15.4818L7.3515 14.8016C6.96862 14.6102 6.66275 14.2936 6.4847 13.9043C6.30665 13.5151 6.26715 13.0766 6.37275 12.6618L7.05 10.0001ZM12.75 8.05907V1.75007H4.38L2.25 6.92207V8.50007H7.05C7.27845 8.5001 7.50388 8.55232 7.70908 8.65273C7.91428 8.75314 8.09383 8.89909 8.23404 9.07946C8.37425 9.25982 8.47141 9.46983 8.51811 9.69345C8.56481 9.91708 8.55981 10.1484 8.5035 10.3698L7.82625 13.0308C7.80505 13.1138 7.81292 13.2016 7.84853 13.2795C7.88415 13.3574 7.94536 13.4208 8.022 13.4591L8.51775 13.7066L12.0503 8.70257C12.2378 8.43707 12.4777 8.21957 12.75 8.05907ZM14.25 7.75007H15.75V1.75007H14.25V7.75007Z" fill="#979797"/>
</svg>
