<svg width="18" height="16" viewBox="0 0 18 16" fill="none" xmlns="http://www.w3.org/2000/svg">
<path d="M10.95 5.99993H15.75C16.1478 5.99993 16.5294 6.15796 16.8107 6.43927C17.092 6.72057 17.25 7.1021 17.25 7.49993V9.07793C17.2502 9.27395 17.212 9.46811 17.1375 9.64943L14.8162 15.2857C14.7596 15.4231 14.6635 15.5406 14.5399 15.6232C14.4164 15.7059 14.2711 15.75 14.1225 15.7499H1.5C1.30109 15.7499 1.11032 15.6709 0.96967 15.5303C0.829018 15.3896 0.75 15.1988 0.75 14.9999V7.49993C0.75 7.30101 0.829018 7.11025 0.96967 6.9696C1.11032 6.82895 1.30109 6.74993 1.5 6.74993H4.1115C4.23157 6.74996 4.3499 6.72116 4.45653 6.66595C4.56315 6.61075 4.65497 6.53075 4.72425 6.43268L8.814 0.637428C8.8657 0.564162 8.94194 0.511848 9.0289 0.489971C9.11586 0.468093 9.20778 0.4781 9.288 0.518178L10.6485 1.19843C11.0314 1.3898 11.3372 1.70641 11.5153 2.09566C11.6933 2.48492 11.7329 2.92337 11.6273 3.33818L10.95 5.99993ZM5.25 7.94093V14.2499H13.62L15.75 9.07793V7.49993H10.95C10.7215 7.4999 10.4961 7.44768 10.2909 7.34727C10.0857 7.24686 9.90617 7.10091 9.76596 6.92054C9.62575 6.74018 9.52859 6.53017 9.48189 6.30655C9.43519 6.08292 9.44019 5.85158 9.4965 5.63018L10.1737 2.96918C10.1949 2.88617 10.1871 2.79841 10.1515 2.7205C10.1159 2.64259 10.0546 2.57921 9.978 2.54093L9.48225 2.29343L5.94975 7.29743C5.76225 7.56293 5.52225 7.78043 5.25 7.94093ZM3.75 8.24993H2.25V14.2499H3.75V8.24993Z" fill="#979797"/>
</svg>
