<svg width="23" height="19" viewBox="0 0 23 19" fill="none" xmlns="http://www.w3.org/2000/svg">
<mask id="path-1-inside-1" fill="white">
<path fill-rule="evenodd" clip-rule="evenodd" d="M2 0C0.895431 0 0 0.89543 0 2V12C0 13.1046 0.89543 14 2 14H3V18.2317C3 18.5553 3.36427 18.745 3.62938 18.5594L10.1429 14H21C22.1046 14 23 13.1046 23 12V2C23 0.895431 22.1046 0 21 0H2Z"/>
</mask>
<path d="M3 14H5V12H3V14ZM3.62938 18.5594L4.77631 20.1979H4.77631L3.62938 18.5594ZM10.1429 14V12H9.51241L8.99593 12.3615L10.1429 14ZM2 2V2V-2C-0.209139 -2 -2 -0.209139 -2 2H2ZM2 12V2H-2V12H2ZM2 12H2H-2C-2 14.2091 -0.20914 16 2 16V12ZM3 12H2V16H3V12ZM5 18.2317V14H1V18.2317H5ZM2.48246 16.921C3.54291 16.1787 5 16.9373 5 18.2317H1C1 20.1734 3.18564 21.3114 4.77631 20.1979L2.48246 16.921ZM8.99593 12.3615L2.48246 16.921L4.77631 20.1979L11.2898 15.6385L8.99593 12.3615ZM21 12H10.1429V16H21V12ZM21 12V16C23.2091 16 25 14.2091 25 12H21ZM21 2V12H25V2H21ZM21 2H25C25 -0.209138 23.2091 -2 21 -2V2ZM2 2H21V-2H2V2Z" fill="#601DC0" mask="url(#path-1-inside-1)"/>
</svg>
