<svg width="14" height="18" viewBox="0 0 14 18" fill="none" xmlns="http://www.w3.org/2000/svg">
<path d="M11.9844 5.83333H11.1641V4.16667C11.1641 1.86667 9.32656 0 7.0625 0C4.79844 0 2.96094 1.86667 2.96094 4.16667V5.83333H2.14062C1.23828 5.83333 0.5 6.58333 0.5 7.5V15.8333C0.5 16.75 1.23828 17.5 2.14062 17.5H11.9844C12.8867 17.5 13.625 16.75 13.625 15.8333V7.5C13.625 6.58333 12.8867 5.83333 11.9844 5.83333ZM7.0625 13.3333C6.16016 13.3333 5.42188 12.5833 5.42188 11.6667C5.42188 10.75 6.16016 10 7.0625 10C7.96484 10 8.70312 10.75 8.70312 11.6667C8.70312 12.5833 7.96484 13.3333 7.0625 13.3333ZM4.60156 5.83333V4.16667C4.60156 2.78333 5.70078 1.66667 7.0625 1.66667C8.42422 1.66667 9.52344 2.78333 9.52344 4.16667V5.83333H4.60156Z" fill="#999999"/>
</svg>
