<svg width="80" height="80" viewBox="0 0 80 80" fill="none" xmlns="http://www.w3.org/2000/svg">
<path d="M77.446 33.2927L78.1264 32.6444L77.446 33.2928C79.2455 35.181 79.5122 38.066 78.0885 40.255L78.8581 40.7556L78.0885 40.2551C76.7169 42.3641 76.4721 45.0162 77.434 47.3417L78.3581 46.9595L77.434 47.3417C78.4331 49.7568 77.6419 52.543 75.5285 54.0665C73.4891 55.5366 72.3063 57.9218 72.3661 60.4385L73.3658 60.4148L72.3661 60.4386C72.4284 63.0532 70.688 65.3627 68.1709 66.0166C65.7387 66.6484 63.7762 68.4449 62.9261 70.8141C62.0433 73.2735 59.5908 74.7952 57.0094 74.4926C54.5136 74.2 52.0359 75.1639 50.3894 77.0658C48.6825 79.0374 45.8493 79.5681 43.5502 78.3496L43.0819 79.2331L43.5501 78.3495C41.3289 77.1724 38.6711 77.1724 36.4499 78.3495L36.8749 79.1515L36.4498 78.3496C34.1506 79.5682 31.3175 79.0375 29.6106 77.0658L28.8546 77.7203L29.6106 77.0658C27.9641 75.1639 25.4864 74.2 22.9906 74.4926C20.4091 74.7952 17.9564 73.2736 17.0739 70.8141V70.814C16.2235 68.4449 14.2613 66.6486 11.8292 66.0167C9.31195 65.3627 7.57157 63.0534 7.63385 60.4386C7.69391 57.9219 6.51108 55.5366 4.47147 54.0665C2.35803 52.543 1.56692 49.7566 2.56593 47.3418L2.56594 47.3417C3.52789 45.0162 3.28307 42.3641 1.91145 40.2551L1.15609 40.7463L1.91144 40.255C0.48774 38.066 0.754435 35.181 2.55394 33.2928L1.85056 32.6225L2.55395 33.2927C4.28893 31.4721 5.01499 28.9097 4.49522 26.447C3.95533 23.8882 5.24327 21.2963 7.59863 20.189H7.59866C9.87323 19.1196 11.4729 16.9926 11.8747 14.5073C12.2923 11.9261 14.4253 9.97768 17.0184 9.79917L16.9499 8.80436L17.0184 9.79917C19.5252 9.6266 21.7837 8.22243 23.0534 6.04986C24.3709 3.79594 27.0595 2.7523 29.5418 3.52592L29.8393 2.57121L29.5418 3.52592C31.9413 4.27371 34.5534 3.78322 36.5208 2.21701C38.5594 0.59428 41.4414 0.594413 43.4791 2.21691C45.4465 3.78346 48.0587 4.27369 50.4582 3.52592C52.9408 2.75228 55.6293 3.79597 56.9465 6.04981L56.9466 6.04987C58.2165 8.22237 60.4747 9.62659 62.9816 9.79917L63.0503 8.80153L62.9816 9.79917C65.5748 9.97769 67.7079 11.9262 68.1253 14.5073V14.5074C68.5273 16.9923 70.1267 19.1195 72.4013 20.189L72.8204 19.2977L72.4013 20.189C74.7568 21.2963 76.0448 23.8884 75.5048 26.4469C74.985 28.9099 75.7111 31.4721 77.446 33.2927Z" fill="#FFCC7E" stroke="#EEB45C" stroke-width="2"/>
<path d="M40 68C55.464 68 68 55.464 68 40C68 24.536 55.464 12 40 12C24.536 12 12 24.536 12 40C12 55.464 24.536 68 40 68Z" fill="#FFE97E"/>
<path fill-rule="evenodd" clip-rule="evenodd" d="M33 67.2678C35.0521 67.7468 37.1908 68 39.3888 68C54.8527 68 67.3888 55.464 67.3888 40C67.3888 24.536 54.8527 12 39.3888 12C37.1908 12 35.052 12.2532 33 12.7322C45.3855 15.6227 54.6112 26.734 54.6112 40C54.6112 53.266 45.3855 64.3773 33 67.2678Z" fill="#FFE461"/>
<path fill-rule="evenodd" clip-rule="evenodd" d="M11.0041 37.3644C12.3419 22.5795 24.8157 11 40.0001 11C55.1845 11 67.6582 22.5795 68.996 37.3644C69.0458 37.9144 68.6402 38.4007 68.0902 38.4504C67.5401 38.5002 67.0539 38.0947 67.0041 37.5446C65.7593 23.7875 54.1471 13 40.0001 13C25.8531 13 14.2408 23.7875 12.996 37.5446C12.9462 38.0947 12.46 38.5002 11.9099 38.4504C11.3599 38.4007 10.9544 37.9144 11.0041 37.3644ZM11.9099 41.5496C12.46 41.4998 12.9462 41.9053 12.996 42.4554C14.2408 56.2125 25.8531 67 40.0001 67C54.1471 67 65.7593 56.2126 67.0041 42.4554C67.0539 41.9053 67.5401 41.4998 68.0902 41.5496C68.6402 41.5993 69.0458 42.0856 68.996 42.6356C67.6582 57.4206 55.1845 69 40.0001 69C24.8157 69 12.3419 57.4205 11.0041 42.6356C10.9544 42.0856 11.3599 41.5993 11.9099 41.5496Z" fill="#EEB45C"/>
<path d="M28.948 54.5401H26.1807C24.8382 54.5401 23.75 53.2988 23.75 51.7675V34.4267C23.75 32.8954 24.8382 31.6541 26.1807 31.6541H28.948C30.2904 31.6541 31.3787 32.8954 31.3787 34.4267V51.7675C31.3787 53.2988 30.2904 54.5401 28.948 54.5401Z" fill="#80B6FF" stroke="black" stroke-width="2" stroke-linejoin="round"/>
<path d="M31.3809 50.743V34.0725C31.3809 32.9753 31.8591 31.9317 32.6923 31.2105L41.5546 23.2716C42.8171 22.1407 44.7717 22.2683 45.8741 23.5536C46.7054 24.523 46.8282 25.908 46.1804 27.0066L43.0316 32.3456L51.5279 32.3457C54.726 32.3457 57.3185 34.9186 57.3185 38.0923C57.3185 38.7569 57.2027 39.4158 56.9754 40.041C56.1228 42.387 53.8856 48.5426 52.6174 52.0324C52.0702 53.538 50.6308 54.5405 49.0178 54.5405H35.2078C33.0943 54.5406 31.3809 52.8404 31.3809 50.743Z" fill="#FAF7F5" stroke="black" stroke-width="2" stroke-linejoin="round"/>
</svg>
