<svg width="128" height="30" viewBox="0 0 128 30" fill="none" xmlns="http://www.w3.org/2000/svg">
<mask id="mask0" mask-type="alpha" maskUnits="userSpaceOnUse" x="0" y="0" width="56" height="30">
<path fill-rule="evenodd" clip-rule="evenodd" d="M0 0H55.5882V30H0V0Z" fill="white"/>
</mask>
<g mask="url(#mask0)">
<path fill-rule="evenodd" clip-rule="evenodd" d="M1.33412 30C0.597191 30 0 29.4145 0 28.692V1.308C0 0.5855 0.597191 0 1.33412 0H49.0237C52.6497 0 55.5882 2.8815 55.5882 6.436V28.692C55.5882 29.4145 54.991 30 54.2541 30H1.33412Z" fill="#601DC0"/>
</g>
<path fill-rule="evenodd" clip-rule="evenodd" d="M40.9075 6.625V9.217H37.9257V23.425H35.2989V9.217H32.293V6.625H40.9075Z" fill="white"/>
<path fill-rule="evenodd" clip-rule="evenodd" d="M44.8018 16.561H47.6658L46.2454 9.69651L44.8018 16.561ZM48.9197 23.425L47.9731 19.249H44.518L43.5477 23.425H40.9209L44.5653 6.625H47.9021L51.5465 23.425H48.9197Z" fill="white"/>
<path d="M20.3372 6.625H29.873V9.125H24.4587L27.5671 14.9963L24.4406 20.9768L29.8797 21.0068L29.8663 23.5068L20.3553 23.4543L24.7731 15.0037L20.3372 6.625Z" fill="white"/>
<path d="M11.4645 14.1998L15.57 6.74567L18.0547 6.74194L18.0908 23.2621L15.5908 23.2674L15.57 11.862L11.4655 18.7589L7.33813 11.862L7.33813 23.2647H4.83813L4.83813 6.74567L7.33813 6.74567L11.4645 14.1998Z" fill="white"/>
<path fill-rule="evenodd" clip-rule="evenodd" d="M59.1182 7.2693H62.948C63.6059 7.2693 64.2246 7.34334 64.8042 7.49143C65.3838 7.63951 65.932 7.87333 66.4489 8.19288C66.9658 8.51243 67.377 8.97227 67.6824 9.5724C67.9879 10.1725 68.1406 10.8857 68.1406 11.7118V12.6003C68.1406 14.3462 67.3574 15.5542 65.791 16.2245L68.3991 23.6365H65.65L63.4649 17.0195H61.7262V23.6365H59.1182V7.2693ZM65.5798 12.2496V12.0626C65.5798 11.2364 65.3683 10.648 64.9454 10.2973C64.5225 9.94653 63.9899 9.77117 63.3477 9.77117H61.7264V14.5177H63.3477C63.9742 14.5177 64.5029 14.3423 64.9336 13.9916C65.3644 13.6408 65.5798 13.0602 65.5798 12.2496ZM77.6489 23.6365L76.7091 19.5681H73.2786L72.3153 23.6365H69.7073L73.3256 7.2693H76.6386L80.2569 23.6365H77.6489ZM73.5607 16.9493H76.4037L74.9939 10.2621L73.5607 16.9493ZM88.4741 7.2693V9.79453H85.5136V23.6365H82.9055V9.79453H79.9215V7.2693H88.4741ZM90.3693 23.6365V7.2693H93.0713V23.6365H90.3693ZM102.416 7.2693H104.93V23.6365H102.369L97.6935 13.2083V23.6365H95.1559V7.2693H97.7405L102.416 17.6976V7.2693ZM107.014 18.1652V12.7172C107.014 11.6728 107.147 10.7726 107.414 10.0166C107.68 9.26061 108.044 8.67608 108.506 8.263C108.968 7.84992 109.47 7.54596 110.01 7.35111C110.55 7.15626 111.134 7.05884 111.76 7.05884C112.371 7.05884 112.939 7.15236 113.464 7.33942C113.989 7.52647 114.482 7.82264 114.944 8.22792C115.406 8.63321 115.77 9.20995 116.037 9.95817C116.303 10.7064 116.444 11.5949 116.46 12.6237V12.8575H113.922V12.6938C113.891 11.6183 113.679 10.8311 113.288 10.3323C112.896 9.83347 112.387 9.58407 111.76 9.58407C110.335 9.58407 109.622 10.683 109.622 12.8809V17.9781C109.622 20.1916 110.335 21.2983 111.76 21.2983C112.403 21.2983 112.923 21.045 113.323 20.5384C113.722 20.0318 113.922 19.2096 113.922 18.0716V17.0195H111.831V14.4942H116.46V18.1652C116.46 19.2096 116.326 20.1136 116.06 20.8774C115.794 21.6413 115.43 22.2297 114.968 22.6428C114.506 23.0558 114.008 23.3559 113.476 23.543C112.943 23.73 112.371 23.8235 111.76 23.8235C111.134 23.8235 110.55 23.7261 110.01 23.5313C109.47 23.3364 108.968 23.0325 108.506 22.6194C108.044 22.2063 107.68 21.6218 107.414 20.8658C107.147 20.1097 107.014 19.2096 107.014 18.1652ZM118.262 18.5627H120.776C120.776 19.4823 120.995 20.1682 121.434 20.6202C121.872 21.0723 122.413 21.2983 123.055 21.2983C123.791 21.2983 124.355 21.0957 124.747 20.6904C125.138 20.2851 125.334 19.7162 125.334 18.9835C125.334 18.2041 125.119 17.6391 124.688 17.2883C124.257 16.9376 123.54 16.6454 122.538 16.4115C122.162 16.3336 121.825 16.244 121.528 16.1426C121.23 16.0413 120.889 15.8738 120.506 15.6399C120.122 15.4061 119.801 15.1411 119.542 14.845C119.284 14.5488 119.064 14.1474 118.884 13.6408C118.704 13.1342 118.614 12.5691 118.614 11.9456C118.614 11.0571 118.743 10.2855 119.002 9.63083C119.26 8.97614 119.613 8.46954 120.059 8.11102C120.506 7.75249 120.987 7.4875 121.504 7.31604C122.021 7.14457 122.577 7.05884 123.172 7.05884C123.768 7.05884 124.32 7.14847 124.829 7.32773C125.338 7.50699 125.816 7.79146 126.262 8.18116C126.708 8.57086 127.065 9.12032 127.331 9.82957C127.597 10.5388 127.731 11.3767 127.731 12.3431H125.216C125.216 11.439 125.025 10.7532 124.641 10.2855C124.257 9.81788 123.771 9.58407 123.184 9.58407C122.597 9.58407 122.123 9.77891 121.763 10.1686C121.402 10.5583 121.222 11.0961 121.222 11.7819C121.222 12.0937 121.277 12.3743 121.387 12.6237C121.496 12.8731 121.622 13.0679 121.763 13.2082C121.904 13.3485 122.103 13.4732 122.362 13.5823C122.62 13.6915 122.828 13.7655 122.984 13.8045C123.141 13.8434 123.352 13.8941 123.619 13.9565C123.697 13.972 123.752 13.9798 123.783 13.9798C126.556 14.5722 127.942 16.1543 127.942 18.7263C127.942 19.6616 127.813 20.4683 127.554 21.1463C127.296 21.8244 126.932 22.3544 126.462 22.7363C125.992 23.1182 125.479 23.3949 124.923 23.5663C124.367 23.7378 123.744 23.8235 123.055 23.8235C122.444 23.8235 121.868 23.7339 121.328 23.5547C120.787 23.3754 120.282 23.0909 119.812 22.7012C119.342 22.3115 118.967 21.7621 118.685 21.0528C118.403 20.3436 118.262 19.5135 118.262 18.5627Z" fill="black"/>
</svg>
